# xmcd
#
# Track frame offsets:
#	150
#	13281
#	26963
#	40332
#	54258
#	68439
#	81817
#	96937
#	111720
#	125524
#	139692
#	152384
#	164573
#	178009
#	192123
#	206447
#	220590
#	235203
#	249328
#	263293
#	276704
#	290279
#	305925
#	319979
#	334345
#
# Disc length: 4632 seconds
# Revision: 3
# Processed by: cddbd v1.5.2PL0 Copyright (c) Steve Scherf et al.
# Submitted via: dBpowerAMP V12.0
#
DISCID=75121619
DTITLE=Various Artist - Broke, Black and Blue Volume 2 - Broke and Hungry Blues
DYEAR=1928
DGENRE=Blues
TTITLE0=Rube Lacy - Ham Hound Crave
TTITLE1=Texas Alexander - No More Women Blues
TTITLE2="New Orleans" Willie Jackson - How Long, How Long Blues
TTITLE3=Tarter and Gay - Unknown Blues
TTITLE4=Chicken Wilson and Skeeter Hinton - Chicken Wilson Blues
TTITLE5=Mississippi John Hurt - Stack O'Lee Blues
TTITLE6=Peg Leg Howell - Broke And Hungry Blues
TTITLE7=Victoria Spivey - Funny Feathers
TTITLE8=Will Ezell - Pitchin' Boogie
TTITLE9=Jed Davenport - Mr Devil Blues
TTITLE10=Kid Bailey - Mississippi Bottom Blues
TTITLE11=James Wiggins - Weary Heart Blues
TTITLE12=Henry Townsend - Poor Man Blues
TTITLE13=Eli Framer - Framer's Blues
TTITLE14=Aaron "T-Bone" Walker - Trinity River Blues
TTITLE15=Charley Taylor - Heavy Suitcase Blues
TTITLE16=Joe Calicott - Traveling Mama Blues
TTITLE17=Garfield Akers - Jumpin' And Shoutin' Blues
TTITLE18=Jim Thompkins - Bedside Blues
TTITLE19=Son House - Walking Blues
TTITLE20=Willie Brown - Future Bues
TTITLE21=Louise Johnson - Long Ways From Home
TTITLE22=Bayless Rose - Frisco Blues
TTITLE23=Arthur Pettis - Good Boy Blues
TTITLE24=Little Brother Montgomery - No Special Rider Blues
EXTD=
EXTT0=
EXTT1=
EXTT2=
EXTT3=
EXTT4=
EXTT5=
EXTT6=
EXTT7=
EXTT8=
EXTT9=
EXTT10=
EXTT11=
EXTT12=
EXTT13=
EXTT14=
EXTT15=
EXTT16=
EXTT17=
EXTT18=
EXTT19=
EXTT20=
EXTT21=
EXTT22=
EXTT23=
EXTT24=
PLAYORDER=
